<svg width="14" height="14" viewBox="0 0 14 14" fill="none" xmlns="http://www.w3.org/2000/svg">
<path d="M10.2683 0C12.649 0 13.993 1.3503 14 3.731V10.269C14 12.649 12.649 14 10.2683 14H3.731C1.3503 14 0 12.649 0 10.269V3.731C0 1.3503 1.3503 0 3.731 0H10.2683ZM7.35 2.891C7.1533 2.772 6.9153 2.772 6.727 2.891C6.5373 3.0093 6.433 3.227 6.4533 3.444V10.577C6.489 10.878 6.7403 11.102 7.0343 11.102C7.336 11.102 7.5873 10.878 7.6153 10.577V3.444C7.6433 3.227 7.539 3.0093 7.35 2.891ZM4.081 5.187C3.892 5.068 3.6533 5.068 3.465 5.187C3.2753 5.306 3.171 5.5223 3.192 5.74V10.577C3.2193 10.878 3.4713 11.102 3.7723 11.102C4.074 11.102 4.3253 10.878 4.3533 10.577V5.74C4.375 5.5223 4.2693 5.306 4.081 5.187ZM10.5623 7.728C10.374 7.609 10.136 7.609 9.94 7.728C9.7503 7.847 9.646 8.0563 9.674 8.281V10.577C9.702 10.878 9.9533 11.102 10.255 11.102C10.549 11.102 10.8003 10.878 10.836 10.577V8.281C10.8563 8.0563 10.752 7.847 10.5623 7.728Z" fill="#9FA8C7"/>
</svg>
