<svg width="14" height="14" viewBox="0 0 14 14" fill="none" xmlns="http://www.w3.org/2000/svg">
<path d="M6.99999 0C10.871 0 14 3.1367 14 6.99999C14 10.8647 10.871 14 6.99999 14C3.136 14 0 10.8647 0 6.99999C0 3.1367 3.136 0 6.99999 0ZM6.99999 9.05169C6.66399 9.05169 6.391 9.32469 6.391 9.66069C6.391 9.99669 6.66399 10.2767 7.00699 10.2767C7.34299 10.2767 7.61599 9.99669 7.61599 9.66069C7.61599 9.32469 7.34299 9.05169 6.99999 9.05169ZM6.99999 3.731C6.66399 3.731 6.38399 4.0117 6.38399 4.347V7.44099C6.38399 7.77769 6.66399 8.04999 6.99999 8.04999C7.33599 8.04999 7.60899 7.77769 7.60899 7.44099V4.347C7.60899 4.0117 7.33599 3.731 6.99999 3.731Z" fill="#9FA8C7"/>
</svg>
