<svg width="14" height="14" viewBox="0 0 14 14" fill="none" xmlns="http://www.w3.org/2000/svg">
<path d="M6.39543 0C8.06797 0 9.43206 1.3407 9.43206 2.99131V6.21842H5.31924C5.02449 6.21842 4.79143 6.44748 4.79143 6.73718C4.79143 7.02014 5.02449 7.25595 5.31924 7.25595H9.43206V10.4763C9.43206 12.1269 8.06797 13.4744 6.38172 13.4744H3.04348C1.36408 13.4744 0 12.1337 0 10.4831V2.99805C0 1.3407 1.37094 0 3.05034 0H6.39543ZM11.1434 4.41299C11.3456 4.20414 11.6757 4.20414 11.8778 4.40625L13.845 6.36677C13.9461 6.46783 14 6.59584 14 6.73732C14 6.87206 13.9461 7.00681 13.845 7.10113L11.8778 9.06165C11.7767 9.1627 11.642 9.2166 11.514 9.2166C11.3792 9.2166 11.2445 9.1627 11.1434 9.06165C10.9413 8.85953 10.9413 8.52941 11.1434 8.32729L12.2214 7.25608H9.43219V6.21855H12.2214L11.1434 5.14734C10.9413 4.94523 10.9413 4.61511 11.1434 4.41299Z" fill="#9FA8C7"/>
</svg>
