<svg width="12" height="14" viewBox="0 0 12 14" fill="none" xmlns="http://www.w3.org/2000/svg">
<path d="M8.794 0C10.8533 0 12 1.18667 12 3.22V10.1067C12 12.1733 10.8533 13.3333 8.794 13.3333H3.20667C1.18 13.3333 0 12.1733 0 10.1067V3.22C0 1.18667 1.18 0 3.20667 0H8.794ZM3.38667 9.16C3.18667 9.14 2.99333 9.23333 2.88667 9.40667C2.78 9.57333 2.78 9.79333 2.88667 9.96667C2.99333 10.1333 3.18667 10.2333 3.38667 10.2067H8.61333C8.87933 10.18 9.08 9.95267 9.08 9.68667C9.08 9.41333 8.87933 9.18667 8.61333 9.16H3.38667ZM8.61333 6.11933H3.38667C3.09933 6.11933 2.86667 6.35333 2.86667 6.64C2.86667 6.92667 3.09933 7.16 3.38667 7.16H8.61333C8.9 7.16 9.13333 6.92667 9.13333 6.64C9.13333 6.35333 8.9 6.11933 8.61333 6.11933ZM5.37933 3.1H3.38667V3.10667C3.09933 3.10667 2.86667 3.34 2.86667 3.62667C2.86667 3.91333 3.09933 4.14667 3.38667 4.14667H5.37933C5.66667 4.14667 5.9 3.91333 5.9 3.61933C5.9 3.33333 5.66667 3.1 5.37933 3.1Z" fill="#9FA8C7"/>
</svg>
