<svg width="13" height="14" viewBox="0 0 13 14" fill="none" xmlns="http://www.w3.org/2000/svg">
<path d="M6.99073 0C7.50817 0 7.97665 0.287368 8.23537 0.711579C8.36123 0.916842 8.44514 1.17 8.42416 1.43684C8.41018 1.64211 8.47311 1.84737 8.58499 2.03895C8.9416 2.62053 9.73173 2.83947 10.3471 2.51105C11.0393 2.11421 11.9133 2.35368 12.3119 3.03105L12.7804 3.83842C13.1859 4.51579 12.9622 5.38474 12.263 5.77474C11.6686 6.12368 11.4588 6.89684 11.8154 7.48526C11.9273 7.67 12.0532 7.82737 12.249 7.92316C12.4937 8.05316 12.6825 8.25842 12.8154 8.46368C13.0741 8.88789 13.0531 9.40789 12.8014 9.86631L12.3119 10.6874C12.0532 11.1253 11.5707 11.3989 11.0743 11.3989C10.8295 11.3989 10.5568 11.3305 10.3331 11.1937C10.1513 11.0774 9.9415 11.0363 9.71775 11.0363C9.0255 11.0363 8.44514 11.6042 8.42416 12.2816C8.42416 13.0684 7.78087 13.6842 6.97675 13.6842H6.02579C5.21468 13.6842 4.57138 13.0684 4.57138 12.2816C4.5574 11.6042 3.97703 11.0363 3.28479 11.0363C3.05405 11.0363 2.84428 11.0774 2.66947 11.1937C2.44571 11.3305 2.16602 11.3989 1.92828 11.3989C1.42483 11.3989 0.942359 11.1253 0.683643 10.6874L0.201171 9.86631C-0.0575451 9.42158 -0.0715298 8.88789 0.187187 8.46368C0.299064 8.25842 0.508834 8.05316 0.746574 7.92316C0.942359 7.82737 1.06822 7.67 1.18709 7.48526C1.53671 6.89684 1.32694 6.12368 0.732589 5.77474C0.0403476 5.38474 -0.183407 4.51579 0.215156 3.83842L0.683643 3.03105C1.0892 2.35368 1.95625 2.11421 2.65548 2.51105C3.26382 2.83947 4.05395 2.62053 4.41056 2.03895C4.52244 1.84737 4.58537 1.64211 4.57138 1.43684C4.5574 1.17 4.63431 0.916842 4.76717 0.711579C5.02589 0.287368 5.49437 0.0136842 6.00481 0H6.99073ZM6.50826 4.91263C5.41046 4.91263 4.52244 5.77474 4.52244 6.84895C4.52244 7.92316 5.41046 8.77842 6.50826 8.77842C7.60606 8.77842 8.47311 7.92316 8.47311 6.84895C8.47311 5.77474 7.60606 4.91263 6.50826 4.91263Z" fill="#9FA8C7"/>
</svg>
