<svg width="14" height="14" viewBox="0 0 14 14" fill="none" xmlns="http://www.w3.org/2000/svg">
<path d="M6.99999 0C10.871 0 14 3.136 14 6.99999C14 10.871 10.871 14 6.99999 14C3.136 14 0 10.871 0 6.99999C0 3.136 3.136 0 6.99999 0ZM6.75499 3.451C6.46799 3.451 6.23 3.682 6.23 3.976V7.51099C6.23 7.69299 6.328 7.86099 6.489 7.95899L9.23299 9.59699C9.31699 9.64599 9.40799 9.67399 9.50599 9.67399C9.68099 9.67399 9.85599 9.58299 9.95399 9.41499C10.101 9.16999 10.024 8.84799 9.77199 8.69399L7.27999 7.20999V3.976C7.27999 3.682 7.04199 3.451 6.75499 3.451Z" fill="#9FA8C7"/>
</svg>
