<svg width="14" height="12" viewBox="0 0 14 12" fill="none" xmlns="http://www.w3.org/2000/svg">
<path d="M9.67704 0C11.9763 0 13.3333 1.32306 13.3333 3.58787H10.5126V3.61098C9.20347 3.61098 8.14222 4.64566 8.14222 5.922C8.14222 7.19835 9.20347 8.23303 10.5126 8.23303H13.3333V8.44102C13.3333 10.6769 11.9763 12 9.67704 12H3.6563C1.35704 12 0 10.6769 0 8.44102V3.55898C0 1.32306 1.35704 0 3.6563 0H9.67704ZM12.8356 4.58161C13.1105 4.58161 13.3333 4.79889 13.3333 5.06692V6.75397C13.3301 7.0207 13.1091 7.23617 12.8356 7.23929H10.5659C9.90319 7.24798 9.32366 6.80558 9.17333 6.17622C9.09805 5.78553 9.20373 5.38238 9.46205 5.07481C9.72036 4.76725 10.1049 4.58672 10.5126 4.58161H12.8356ZM10.8326 5.36158H10.6133C10.4787 5.36004 10.3491 5.41109 10.2533 5.50336C10.1576 5.59562 10.1037 5.72142 10.1037 5.85267C10.1037 6.12804 10.3309 6.35216 10.6133 6.35532H10.8326C11.1141 6.35532 11.3422 6.13286 11.3422 5.85845C11.3422 5.58404 11.1141 5.36158 10.8326 5.36158ZM6.92148 2.59413H3.15852C2.87936 2.59411 2.65214 2.81306 2.64889 3.08522C2.64889 3.36058 2.8761 3.5847 3.15852 3.58787H6.92148C7.20294 3.58787 7.43111 3.36541 7.43111 3.091C7.43111 2.81658 7.20294 2.59413 6.92148 2.59413Z" fill="#9FA8C7"/>
</svg>
